<svg width="740" height="156" viewBox="0 0 740 156" fill="none" xmlns="http://www.w3.org/2000/svg">
<rect width="739.45" height="156" fill="white"/>
<path d="M91.3904 37.1926H97.4831" stroke="#308683" stroke-width="6.09269" stroke-miterlimit="10" stroke-linecap="square"/>
<path d="M36.5562 37.1926H73.1123" stroke="#308683" stroke-width="6.09269" stroke-miterlimit="10" stroke-linecap="square"/>
<path d="M91.3904 61.5634H97.4831" stroke="#308683" stroke-width="6.09269" stroke-miterlimit="10" stroke-linecap="square"/>
<path d="M36.5562 61.5634H73.1123" stroke="#A31C6F" stroke-width="6.09269" stroke-miterlimit="10" stroke-linecap="square"/>
<path d="M36.5562 85.9341H88.344" stroke="#A31C6F" stroke-width="6.09269" stroke-miterlimit="10" stroke-linecap="square"/>
<path d="M36.5562 110.305H88.344" stroke="#A31C6F" stroke-width="6.09269" stroke-miterlimit="10" stroke-linecap="square"/>
<path d="M79.205 140.768H12.1854V6.72913H121.854V46.3316" stroke="#308683" stroke-width="6.09269" stroke-miterlimit="10" stroke-linecap="square"/>
<path d="M130.168 111.162V93.2488V75.3353C130.168 72.7264 129.131 70.2242 127.287 68.3794C125.442 66.5346 122.94 65.4982 120.331 65.4982C117.722 65.4982 115.22 66.5346 113.375 68.3794C111.53 70.2242 110.493 72.7264 110.493 75.3353V111.162C106.165 113.371 102.705 116.973 100.673 121.388C98.64 125.802 98.1524 130.772 99.2884 135.498C100.424 140.223 103.118 144.429 106.935 147.437C110.752 150.445 115.471 152.081 120.331 152.081C125.191 152.081 129.909 150.445 133.726 147.437C137.543 144.429 140.237 140.223 141.373 135.498C142.509 130.772 142.021 125.802 139.989 121.388C137.956 116.973 134.497 113.371 130.168 111.162Z" stroke="#308683" stroke-width="6.09269" stroke-miterlimit="10" stroke-linecap="square"/>
<path d="M120.331 93.0422V120.586" stroke="#308683" stroke-width="6.09269" stroke-miterlimit="10" stroke-linecap="square"/>
<path d="M120.331 140.26C125.764 140.26 130.168 135.856 130.168 130.423C130.168 124.99 125.764 120.586 120.331 120.586C114.898 120.586 110.494 124.99 110.494 130.423C110.494 135.856 114.898 140.26 120.331 140.26Z" stroke="#308683" stroke-width="6.09269" stroke-miterlimit="10" stroke-linecap="square"/>
<path d="M235.796 45.8852V112.607H223.405V84.0119H188.9V112.607H176.509V45.8852H188.9V73.4317H223.405V45.8852H235.796ZM297.52 87.4433C297.52 88.2694 297.457 89.445 297.33 90.97H257.392C258.091 94.7191 259.902 97.7057 262.825 99.9298C265.811 102.09 269.497 103.171 273.882 103.171C279.474 103.171 284.081 101.328 287.703 97.6422L294.089 104.982C291.801 107.714 288.91 109.779 285.415 111.177C281.92 112.575 277.98 113.274 273.596 113.274C268.004 113.274 263.079 112.162 258.822 109.938C254.564 107.714 251.26 104.632 248.909 100.692C246.621 96.689 245.477 92.1774 245.477 87.1574C245.477 82.2009 246.589 77.7528 248.813 73.813C251.101 69.8097 254.246 66.696 258.25 64.472C262.253 62.2479 266.765 61.1359 271.785 61.1359C276.741 61.1359 281.157 62.2479 285.034 64.472C288.973 66.6325 292.024 69.7144 294.184 73.7177C296.408 77.6574 297.52 82.2327 297.52 87.4433ZM271.785 70.6675C267.972 70.6675 264.731 71.8113 262.062 74.099C259.457 76.323 257.868 79.3096 257.297 83.0587H286.178C285.669 79.3731 284.112 76.3866 281.507 74.099C278.902 71.8113 275.661 70.6675 271.785 70.6675ZM324.154 61.1359C331.652 61.1359 337.371 62.9469 341.311 66.5689C345.314 70.1274 347.316 75.5287 347.316 82.7728V112.607H336.068V106.411C334.607 108.635 332.51 110.351 329.777 111.558C327.109 112.702 323.868 113.274 320.055 113.274C316.243 113.274 312.906 112.639 310.047 111.368C307.187 110.033 304.963 108.222 303.375 105.935C301.85 103.584 301.087 100.947 301.087 98.0235C301.087 93.4483 302.771 89.7945 306.139 87.062C309.57 84.2661 314.94 82.8681 322.247 82.8681H335.401V82.1056C335.401 78.5471 334.321 75.8147 332.16 73.9083C330.063 72.002 326.918 71.0488 322.724 71.0488C319.865 71.0488 317.037 71.4936 314.241 72.3833C311.508 73.2729 309.189 74.512 307.283 76.1006L302.612 67.4268C305.281 65.3934 308.49 63.8365 312.239 62.7563C315.988 61.676 319.96 61.1359 324.154 61.1359ZM322.533 104.6C325.52 104.6 328.157 103.933 330.445 102.599C332.796 101.201 334.448 99.2308 335.401 96.689V90.7794H323.105C316.243 90.7794 312.811 93.0352 312.811 97.5469C312.811 99.7074 313.669 101.423 315.385 102.694C317.1 103.965 319.483 104.6 322.533 104.6ZM359.747 41.8819H371.662V112.607H359.747V41.8819ZM417.55 109.843C416.152 110.987 414.436 111.844 412.403 112.416C410.433 112.988 408.336 113.274 406.112 113.274C400.52 113.274 396.199 111.813 393.149 108.89C390.099 105.967 388.574 101.709 388.574 96.1171V71.6207H380.186V62.089H388.574V50.4604H400.488V62.089H414.119V71.6207H400.488V95.8312C400.488 98.3094 401.092 100.216 402.299 101.55C403.507 102.821 405.254 103.457 407.542 103.457C410.211 103.457 412.435 102.758 414.214 101.36L417.55 109.843ZM453.373 61.1359C459.791 61.1359 464.938 63.0104 468.814 66.7596C472.69 70.5087 474.628 76.0688 474.628 83.44V112.607H462.714V84.9651C462.714 80.5169 461.665 77.1809 459.568 74.9568C457.471 72.6692 454.485 71.5254 450.609 71.5254C446.224 71.5254 442.761 72.8598 440.219 75.5287C437.677 78.134 436.406 81.9149 436.406 86.8714V112.607H424.492V41.8819H436.406V67.6174C438.376 65.5204 440.791 63.9318 443.651 62.8516C446.574 61.7078 449.814 61.1359 453.373 61.1359Z" fill="#308683"/>
<path d="M525.114 113.751C518.315 113.751 512.151 112.289 506.623 109.366C501.158 106.38 496.837 102.281 493.659 97.0703C490.546 91.7961 488.989 85.8547 488.989 79.2461C488.989 72.6374 490.546 66.7278 493.659 61.5171C496.837 56.2429 501.158 52.1443 506.623 49.2213C512.151 46.2347 518.347 44.7414 525.209 44.7414C530.992 44.7414 536.203 45.7581 540.841 47.7915C545.544 49.8249 549.483 52.748 552.661 56.5607L542.748 65.7111C538.236 60.5004 532.644 57.8951 525.972 57.8951C521.841 57.8951 518.156 58.8165 514.915 60.6593C511.674 62.4385 509.133 64.9485 507.29 68.1893C505.511 71.4301 504.621 75.1157 504.621 79.2461C504.621 83.3765 505.511 87.062 507.29 90.3028C509.133 93.5436 511.674 96.0854 514.915 97.9281C518.156 99.7074 521.841 100.597 525.972 100.597C532.644 100.597 538.236 97.9599 542.748 92.6857L552.661 101.836C549.483 105.712 545.544 108.667 540.841 110.701C536.139 112.734 530.897 113.751 525.114 113.751ZM607.643 87.1574C607.643 87.348 607.548 88.6824 607.358 91.1607H568.564C569.263 94.3379 570.915 96.8479 573.52 98.6907C576.125 100.533 579.366 101.455 583.242 101.455C585.911 101.455 588.262 101.074 590.296 100.311C592.393 99.485 594.331 98.2141 596.11 96.4984L604.021 105.077C599.192 110.605 592.139 113.369 582.861 113.369C577.079 113.369 571.963 112.257 567.515 110.033C563.067 107.746 559.636 104.6 557.221 100.597C554.806 96.5937 553.599 92.0503 553.599 86.9667C553.599 81.9467 554.774 77.435 557.126 73.4317C559.54 69.3649 562.813 66.2194 566.943 63.9954C571.137 61.7078 575.808 60.564 580.955 60.564C585.975 60.564 590.518 61.6442 594.585 63.8047C598.652 65.9653 601.829 69.0789 604.117 73.1458C606.468 77.1491 607.643 81.8196 607.643 87.1574ZM581.05 71.8113C577.682 71.8113 574.854 72.7645 572.567 74.6709C570.279 76.5772 568.881 79.1825 568.373 82.4868H593.632C593.124 79.2461 591.726 76.6725 589.438 74.7662C587.15 72.7963 584.354 71.8113 581.05 71.8113ZM628.886 68.094C630.665 65.6158 633.048 63.7412 636.034 62.4703C639.085 61.1994 642.58 60.564 646.519 60.564V74.2896C644.867 74.1625 643.755 74.099 643.183 74.099C638.926 74.099 635.59 75.3063 633.175 77.721C630.76 80.0721 629.553 83.6306 629.553 88.3965V112.607H614.683V61.3265H628.886V68.094ZM687.345 110.129C685.883 111.209 684.072 112.035 681.912 112.607C679.815 113.115 677.591 113.369 675.239 113.369C669.139 113.369 664.405 111.813 661.037 108.699C657.733 105.585 656.081 101.01 656.081 94.9733V73.9083H648.169V62.4703H656.081V49.9838H670.95V62.4703H683.723V73.9083H670.95V94.7827C670.95 96.9432 671.49 98.6271 672.571 99.8345C673.714 100.978 675.303 101.55 677.336 101.55C679.688 101.55 681.689 100.915 683.341 99.6439L687.345 110.129ZM710.084 113.369C705.827 113.369 701.665 112.861 697.598 111.844C693.531 110.764 690.29 109.43 687.876 107.841L692.832 97.1656C695.12 98.6271 697.884 99.8345 701.125 100.788C704.365 101.677 707.543 102.122 710.656 102.122C716.947 102.122 720.093 100.565 720.093 97.4516C720.093 95.99 719.235 94.9416 717.519 94.3061C715.803 93.6707 713.166 93.1305 709.608 92.6857C705.414 92.0503 701.951 91.3195 699.218 90.4934C696.486 89.6674 694.103 88.2058 692.07 86.1089C690.1 84.0119 689.115 81.0253 689.115 77.1491C689.115 73.9083 690.036 71.0488 691.879 68.5706C693.785 66.0288 696.518 64.0589 700.076 62.6609C703.698 61.263 707.956 60.564 712.849 60.564C716.471 60.564 720.061 60.977 723.619 61.8031C727.241 62.5656 730.228 63.6459 732.579 65.0439L727.623 75.624C723.111 73.0822 718.186 71.8113 712.849 71.8113C709.671 71.8113 707.288 72.2562 705.7 73.1458C704.111 74.0354 703.317 75.1792 703.317 76.5772C703.317 78.1658 704.175 79.2778 705.89 79.9133C707.606 80.5487 710.339 81.1524 714.088 81.7243C718.282 82.4233 721.713 83.1858 724.382 84.0119C727.051 84.7744 729.37 86.2042 731.34 88.3012C733.31 90.3981 734.295 93.3212 734.295 97.0703C734.295 100.248 733.342 103.075 731.435 105.553C729.529 108.032 726.733 109.97 723.048 111.368C719.425 112.702 715.104 113.369 710.084 113.369Z" fill="#A31C6F"/>
</svg>
