<svg width="740" height="156" viewBox="0 0 740 156" fill="none" xmlns="http://www.w3.org/2000/svg">
<rect width="739.45" height="156" fill="white"/>
<path d="M91.3903 37.1926H97.483" stroke="#1E442D" stroke-width="6.09269" stroke-miterlimit="10" stroke-linecap="square"/>
<path d="M36.5561 37.1926H73.1123" stroke="#1E442D" stroke-width="6.09269" stroke-miterlimit="10" stroke-linecap="square"/>
<path d="M91.3903 61.5633H97.483" stroke="#1E442D" stroke-width="6.09269" stroke-miterlimit="10" stroke-linecap="square"/>
<path d="M36.5561 61.5633H73.1123" stroke="#2D7446" stroke-width="6.09269" stroke-miterlimit="10" stroke-linecap="square"/>
<path d="M36.5561 85.934H88.344" stroke="#2D7446" stroke-width="6.09269" stroke-miterlimit="10" stroke-linecap="square"/>
<path d="M36.5561 110.305H88.344" stroke="#2D7446" stroke-width="6.09269" stroke-miterlimit="10" stroke-linecap="square"/>
<path d="M79.205 140.768H12.1854V6.72913H121.854V46.3316" stroke="#1E442D" stroke-width="6.09269" stroke-miterlimit="10" stroke-linecap="square"/>
<path d="M130.168 111.162V93.2488V75.3354C130.168 72.7264 129.131 70.2243 127.287 68.3794C125.442 66.5346 122.94 65.4982 120.331 65.4982C117.722 65.4982 115.22 66.5346 113.375 68.3794C111.53 70.2243 110.494 72.7264 110.494 75.3354V111.162C106.165 113.371 102.705 116.973 100.673 121.388C98.64 125.802 98.1524 130.772 99.2885 135.498C100.424 140.223 103.118 144.429 106.935 147.437C110.752 150.445 115.471 152.081 120.331 152.081C125.191 152.081 129.909 150.445 133.726 147.437C137.543 144.429 140.237 140.223 141.373 135.498C142.509 130.772 142.021 125.802 139.989 121.388C137.956 116.973 134.497 113.371 130.168 111.162Z" stroke="#2D7446" stroke-width="6.09269" stroke-miterlimit="10" stroke-linecap="square"/>
<path d="M120.331 93.0423V120.586" stroke="#2D7446" stroke-width="6.09269" stroke-miterlimit="10" stroke-linecap="square"/>
<path d="M120.331 140.261C125.764 140.261 130.168 135.856 130.168 130.423C130.168 124.99 125.764 120.586 120.331 120.586C114.898 120.586 110.494 124.99 110.494 130.423C110.494 135.856 114.898 140.261 120.331 140.261Z" stroke="#2D7446" stroke-width="6.09269" stroke-miterlimit="10" stroke-linecap="square"/>
<path d="M235.796 45.8851V112.607H223.405V84.0118H188.9V112.607H176.509V45.8851H188.9V73.4317H223.405V45.8851H235.796ZM297.52 87.4432C297.52 88.2693 297.457 89.4449 297.33 90.97H257.392C258.091 94.7191 259.902 97.7057 262.825 99.9297C265.811 102.09 269.497 103.171 273.882 103.171C279.474 103.171 284.081 101.328 287.703 97.6421L294.089 104.982C291.801 107.714 288.91 109.779 285.415 111.177C281.92 112.575 277.98 113.274 273.596 113.274C268.004 113.274 263.079 112.162 258.822 109.938C254.564 107.714 251.26 104.632 248.909 100.692C246.621 96.689 245.477 92.1773 245.477 87.1573C245.477 82.2008 246.589 77.7527 248.813 73.8129C251.101 69.8096 254.246 66.696 258.25 64.4719C262.253 62.2478 266.765 61.1358 271.785 61.1358C276.741 61.1358 281.157 62.2478 285.034 64.4719C288.973 66.6324 292.024 69.7143 294.184 73.7176C296.408 77.6574 297.52 82.2326 297.52 87.4432ZM271.785 70.6675C267.972 70.6675 264.731 71.8113 262.062 74.0989C259.457 76.323 257.868 79.3095 257.296 83.0587H286.177C285.669 79.3731 284.112 76.3865 281.507 74.0989C278.902 71.8113 275.661 70.6675 271.785 70.6675ZM324.154 61.1358C331.652 61.1358 337.371 62.9468 341.311 66.5689C345.314 70.1274 347.316 75.5286 347.316 82.7727V112.607H336.068V106.411C334.607 108.635 332.51 110.351 329.777 111.558C327.109 112.702 323.868 113.274 320.055 113.274C316.242 113.274 312.906 112.639 310.047 111.368C307.187 110.033 304.963 108.222 303.375 105.935C301.85 103.584 301.087 100.946 301.087 98.0234C301.087 93.4482 302.771 89.7944 306.139 87.062C309.57 84.266 314.94 82.868 322.247 82.868H335.401V82.1055C335.401 78.547 334.321 75.8146 332.16 73.9083C330.063 72.0019 326.918 71.0488 322.724 71.0488C319.865 71.0488 317.037 71.4936 314.241 72.3832C311.508 73.2728 309.189 74.5119 307.283 76.1005L302.612 67.4267C305.281 65.3933 308.49 63.8365 312.239 62.7562C315.988 61.6759 319.96 61.1358 324.154 61.1358ZM322.533 104.6C325.52 104.6 328.157 103.933 330.445 102.599C332.796 101.201 334.448 99.2308 335.401 96.689V90.7793H323.105C316.242 90.7793 312.811 93.0352 312.811 97.5468C312.811 99.7073 313.669 101.423 315.385 102.694C317.1 103.965 319.483 104.6 322.533 104.6ZM359.747 41.8818H371.662V112.607H359.747V41.8818ZM417.55 109.843C416.152 110.986 414.436 111.844 412.403 112.416C410.433 112.988 408.336 113.274 406.112 113.274C400.52 113.274 396.199 111.813 393.149 108.89C390.099 105.966 388.574 101.709 388.574 96.1171V71.6207H380.186V62.089H388.574V50.4603H400.488V62.089H414.119V71.6207H400.488V95.8311C400.488 98.3094 401.092 100.216 402.299 101.55C403.507 102.821 405.254 103.456 407.542 103.456C410.211 103.456 412.435 102.757 414.214 101.359L417.55 109.843ZM453.373 61.1358C459.791 61.1358 464.938 63.0104 468.814 66.7595C472.69 70.5086 474.628 76.0688 474.628 83.4399V112.607H462.714V84.965C462.714 80.5169 461.665 77.1808 459.568 74.9567C457.471 72.6691 454.485 71.5253 450.609 71.5253C446.224 71.5253 442.761 72.8598 440.219 75.5286C437.677 78.134 436.406 81.9149 436.406 86.8713V112.607H424.492V41.8818H436.406V67.6173C438.376 65.5204 440.791 63.9318 443.65 62.8515C446.574 61.7077 449.814 61.1358 453.373 61.1358Z" fill="#1E442D"/>
<path d="M525.114 113.751C518.315 113.751 512.151 112.289 506.623 109.366C501.158 106.38 496.837 102.281 493.659 97.0702C490.546 91.796 488.989 85.8546 488.989 79.246C488.989 72.6374 490.546 66.7277 493.659 61.5171C496.837 56.2429 501.158 52.1443 506.623 49.2212C512.151 46.2346 518.347 44.7413 525.209 44.7413C530.992 44.7413 536.203 45.758 540.841 47.7915C545.544 49.8249 549.483 52.7479 552.661 56.5606L542.748 65.711C538.236 60.5004 532.644 57.895 525.972 57.895C521.841 57.895 518.156 58.8164 514.915 60.6592C511.674 62.4385 509.133 64.9485 507.29 68.1893C505.511 71.43 504.621 75.1156 504.621 79.246C504.621 83.3764 505.511 87.062 507.29 90.3027C509.133 93.5435 511.674 96.0853 514.915 97.9281C518.156 99.7073 521.841 100.597 525.972 100.597C532.644 100.597 538.236 97.9599 542.748 92.6857L552.661 101.836C549.483 105.712 545.544 108.667 540.841 110.701C536.139 112.734 530.897 113.751 525.114 113.751ZM607.643 87.1573C607.643 87.3479 607.548 88.6824 607.357 91.1606H568.564C569.263 94.3378 570.915 96.8478 573.52 98.6906C576.125 100.533 579.366 101.455 583.242 101.455C585.911 101.455 588.262 101.074 590.296 100.311C592.393 99.4849 594.331 98.214 596.11 96.4983L604.021 105.077C599.192 110.605 592.139 113.369 582.861 113.369C577.079 113.369 571.963 112.257 567.515 110.033C563.067 107.746 559.636 104.6 557.221 100.597C554.806 96.5937 553.599 92.0502 553.599 86.9667C553.599 81.9466 554.774 77.435 557.126 73.4317C559.54 69.3648 562.813 66.2194 566.943 63.9953C571.137 61.7077 575.808 60.5639 580.955 60.5639C585.975 60.5639 590.518 61.6442 594.585 63.8047C598.652 65.9652 601.829 69.0789 604.117 73.1457C606.468 77.149 607.643 81.8196 607.643 87.1573ZM581.05 71.8113C577.682 71.8113 574.854 72.7645 572.567 74.6708C570.279 76.5771 568.881 79.1825 568.373 82.4868H593.632C593.124 79.246 591.726 76.6724 589.438 74.7661C587.15 72.7962 584.354 71.8113 581.05 71.8113ZM628.886 68.0939C630.665 65.6157 633.048 63.7411 636.034 62.4702C639.085 61.1994 642.58 60.5639 646.519 60.5639V74.2895C644.867 74.1624 643.755 74.0989 643.183 74.0989C638.926 74.0989 635.59 75.3062 633.175 77.7209C630.76 80.0721 629.553 83.6306 629.553 88.3964V112.607H614.683V61.3264H628.886V68.0939ZM687.345 110.129C685.883 111.209 684.072 112.035 681.912 112.607C679.815 113.115 677.591 113.369 675.239 113.369C669.139 113.369 664.405 111.813 661.037 108.699C657.733 105.585 656.081 101.01 656.081 94.9733V73.9083H648.169V62.4702H656.081V49.9837H670.95V62.4702H683.723V73.9083H670.95V94.7826C670.95 96.9431 671.49 98.6271 672.571 99.8344C673.714 100.978 675.303 101.55 677.336 101.55C679.688 101.55 681.689 100.915 683.341 99.6438L687.345 110.129ZM710.084 113.369C705.827 113.369 701.665 112.861 697.598 111.844C693.531 110.764 690.29 109.43 687.876 107.841L692.832 97.1656C695.12 98.6271 697.884 99.8344 701.125 100.788C704.365 101.677 707.543 102.122 710.656 102.122C716.947 102.122 720.093 100.565 720.093 97.4515C720.093 95.99 719.235 94.9415 717.519 94.3061C715.803 93.6706 713.166 93.1305 709.608 92.6857C705.414 92.0502 701.951 91.3195 699.218 90.4934C696.486 89.6673 694.103 88.2058 692.07 86.1088C690.1 84.0118 689.115 81.0252 689.115 77.149C689.115 73.9083 690.036 71.0488 691.879 68.5705C693.785 66.0287 696.518 64.0589 700.076 62.6609C703.698 61.2629 707.956 60.5639 712.849 60.5639C716.471 60.5639 720.061 60.9769 723.619 61.803C727.241 62.5656 730.228 63.6458 732.579 65.0438L727.623 75.624C723.111 73.0822 718.186 71.8113 712.849 71.8113C709.671 71.8113 707.288 72.2561 705.7 73.1457C704.111 74.0353 703.317 75.1791 703.317 76.5771C703.317 78.1657 704.175 79.2778 705.89 79.9132C707.606 80.5487 710.339 81.1523 714.088 81.7242C718.282 82.4232 721.713 83.1858 724.382 84.0118C727.051 84.7744 729.37 86.2041 731.34 88.3011C733.31 90.3981 734.295 93.3211 734.295 97.0702C734.295 100.247 733.342 103.075 731.435 105.553C729.529 108.032 726.733 109.97 723.047 111.368C719.425 112.702 715.104 113.369 710.084 113.369Z" fill="#2D7446"/>
</svg>
