<svg width="1920" height="750" viewBox="0 0 1920 750" fill="none" xmlns="http://www.w3.org/2000/svg">
<g clip-path="url(#clip0)">
<rect width="1920" height="750" fill="#909EB3"/>
<path d="M105.758 346.012C93.3134 306.812 102.048 262.701 125.049 223.345C147.482 184.961 191.443 158.322 232.05 129.92C275.49 99.5362 315.345 55.4461 370.316 51.7935C425.295 48.1404 459.903 89.5524 503.683 111.871C542.464 131.642 585.059 146.179 612.648 175.334C643.468 207.903 669.204 244.985 670.094 287.728C671.049 333.602 654.092 381.825 617.763 421.037C581.106 460.603 527.45 491.694 469.307 504.45C414.453 516.485 361.441 501.296 310.388 488.475C265.553 477.215 226.774 458.928 192.196 434.855C156.052 409.693 117.81 383.977 105.758 346.012Z" fill="#7D8BA1"/>
<path d="M1732.32 363.312C1818.04 367.738 1894.79 403.234 1953.46 445.432C2010.39 486.383 2032.28 541.419 2054.91 595.337C2078.47 651.464 2113.98 709.722 2087.75 765.313C2061.27 821.418 1985.49 858.879 1914.33 893.245C1845.34 926.559 1769.92 956.801 1685.06 959.78C1601.7 962.706 1525 935.973 1451.43 909.494C1378.59 883.277 1298.65 857.178 1261.9 807.475C1225.76 758.589 1251.48 701.519 1257.43 647.089C1263.26 593.884 1249.2 535.409 1296.38 492.481C1343.43 449.664 1432 443.734 1504.51 422.252C1580.5 399.735 1649.5 359.036 1732.32 363.312Z" fill="#7D8BA1"/>
<path fill-rule="evenodd" clip-rule="evenodd" d="M214.644 452.501C208.145 443.688 191.902 449.522 191.912 456.818C191.937 475.975 209.419 566.917 210.332 572.659C211.244 578.401 221.022 580.279 221.591 573.105C222.497 561.69 224.181 522.117 222.496 503.707C222.004 498.329 221.486 493.131 220.963 488.262C230.151 504.767 244.122 528.096 262.876 558.248L273.299 553.486C265.114 526.519 258.402 507.48 253.164 496.371C244.195 477.349 235.785 461.06 232.245 455.322C227.57 447.742 219.987 448.749 214.644 452.501Z" fill="#B28B67"/>
<path fill-rule="evenodd" clip-rule="evenodd" d="M272.554 538.51L236.779 453.761C228.208 439.974 204.179 456.566 207.102 464.562C213.737 482.716 247.484 541.487 249.46 546.895L272.554 538.51Z" fill="#3A4355"/>
<path fill-rule="evenodd" clip-rule="evenodd" d="M191.007 463.435C191.007 487.457 201.536 543.923 201.543 549.213L227.05 548.353C222.592 499.259 220.711 474.545 221.409 474.213C222.98 473.464 285.802 482.908 304.644 483.621C331.813 484.649 343.052 467.981 343.964 436.35H291.336C246.335 441.722 216.758 445.458 202.606 447.558C193.517 448.907 191.007 456.818 191.007 463.435Z" fill="#222A38"/>
<path fill-rule="evenodd" clip-rule="evenodd" d="M274.71 550.829C276.346 553.207 277.327 555.047 277.651 556.349C278.046 557.932 278.359 560.309 278.588 563.479C276.751 563.937 260.241 568.053 229.057 575.828C226.709 571.894 226.879 569.412 229.568 568.381C232.256 567.35 234.484 566.469 236.25 565.739L256.713 549.735C257.106 549.427 257.675 549.497 257.983 549.891C257.988 549.898 257.993 549.904 257.999 549.911L260.373 553.132C263.239 553.69 265.475 553.768 267.08 553.368C268.384 553.043 270.054 552.067 272.089 550.441L272.089 550.441C272.87 549.817 274.009 549.944 274.633 550.725C274.66 550.759 274.685 550.794 274.71 550.829Z" fill="#E4E4E4"/>
<path fill-rule="evenodd" clip-rule="evenodd" d="M222.976 559.577C223.988 562.28 224.494 564.303 224.494 565.645C224.494 567.277 224.222 569.658 223.679 572.79C221.785 572.79 204.769 572.79 172.631 572.79C171.304 568.404 172.07 566.036 174.928 565.687C177.786 565.337 180.16 565.021 182.051 564.74L205.777 554.162C206.234 553.959 206.769 554.164 206.973 554.62C206.976 554.628 206.979 554.636 206.983 554.644L208.508 558.343C211.154 559.578 213.304 560.195 214.958 560.195C216.302 560.195 218.158 559.652 220.526 558.567L220.526 558.567C221.435 558.15 222.509 558.549 222.926 559.458C222.944 559.497 222.96 559.537 222.976 559.577Z" fill="#E4E4E4"/>
<path d="M178.788 572.79H220.422C222.171 572.79 223.589 574.208 223.589 575.957C223.589 577.707 222.171 579.125 220.422 579.125H178.788C177.039 579.125 175.62 577.707 175.62 575.957C175.62 574.208 177.039 572.79 178.788 572.79Z" fill="#666666"/>
<path fill-rule="evenodd" clip-rule="evenodd" d="M346.68 441.554H249.837C244.838 441.554 240.786 445.606 240.786 450.604V494.953H352.11C354.109 494.953 355.73 493.332 355.73 491.333V450.604C355.73 445.606 351.678 441.554 346.68 441.554Z" fill="#B1B1B1"/>
<path fill-rule="evenodd" clip-rule="evenodd" d="M249.837 441.554H247.851C243.418 441.554 239.638 444.764 238.92 449.138L219.064 570.074H228.735" fill="#666666"/>
<path d="M223.589 588.176C214.592 588.176 207.298 580.882 207.298 571.885C207.298 562.887 214.592 555.593 223.589 555.593C232.587 555.593 239.881 562.887 239.881 571.885C239.881 580.882 232.587 588.176 223.589 588.176Z" fill="#E4E4E4"/>
<path fill-rule="evenodd" clip-rule="evenodd" d="M343.964 586.366C381.954 586.366 412.75 555.569 412.75 517.58C412.75 479.591 381.954 448.794 343.964 448.794C305.975 448.794 275.179 479.591 275.179 517.58C275.179 555.569 305.975 586.366 343.964 586.366ZM343.964 573.695C312.973 573.695 287.85 548.571 287.85 517.58C287.85 486.589 312.973 461.465 343.964 461.465C374.956 461.465 400.079 486.589 400.079 517.58C400.079 548.571 374.956 573.695 343.964 573.695Z" fill="#E4E4E4"/>
<path d="M340.344 457.845H347.585V577.315H340.344V457.845Z" fill="#E4E4E4"/>
<path d="M300.445 476.621L303.005 474.061C303.712 473.354 304.858 473.354 305.565 474.061L387.483 555.979C388.19 556.686 388.19 557.832 387.483 558.539L384.923 561.099C384.216 561.806 383.07 561.806 382.363 561.099L300.445 479.181C299.738 478.474 299.738 477.328 300.445 476.621Z" fill="#E4E4E4"/>
<path d="M284.229 519.39V515.77C284.229 514.77 285.04 513.96 286.04 513.96H401.889C402.889 513.96 403.699 514.77 403.699 515.77V519.39C403.699 520.39 402.889 521.2 401.889 521.2H286.04C285.04 521.2 284.229 520.39 284.229 519.39Z" fill="#E4E4E4"/>
<path d="M303.005 561.099L300.445 558.539C299.738 557.832 299.738 556.686 300.445 555.979L382.363 474.061C383.07 473.354 384.216 473.354 384.923 474.061L387.483 476.621C388.19 477.328 388.19 478.474 387.483 479.181L305.565 561.099C304.858 561.806 303.712 561.806 303.005 561.099Z" fill="#E4E4E4"/>
<path fill-rule="evenodd" clip-rule="evenodd" d="M252.139 343.209L217.833 332.911C211.433 327.929 205.397 324.286 199.724 321.983C198.074 321.672 195.342 321.853 198.756 325.725C202.169 329.597 205.585 333.823 204.611 335.447C203.636 337.071 200.085 335.847 199.057 338.419C198.372 340.133 204.255 341.361 216.707 342.103L243.38 357.8L252.139 343.209ZM255.17 403.693L226.3 424.893C218.47 427.006 211.928 429.634 206.674 432.779C205.433 433.91 203.933 436.2 209.08 435.804C214.227 435.408 219.658 435.224 220.368 436.979C221.078 438.735 217.964 440.834 219.399 443.202C220.356 444.781 224.878 440.822 232.963 431.324L261.552 419.469L255.17 403.693Z" fill="#F9C77B"/>
<path fill-rule="evenodd" clip-rule="evenodd" d="M300.013 346.599C284.291 375.914 261.557 398.386 228.598 421.747L241.078 435.818C277.878 422.142 297.3 413.891 306.837 386.195C309.231 379.243 310.904 357.084 312.339 345.425L300.013 346.599Z" fill="#245637"/>
<path fill-rule="evenodd" clip-rule="evenodd" d="M343.964 444.269H274.274C290.06 396.124 298.124 363.08 298.466 345.137C298.483 344.223 300.173 342.611 300.92 342.822C306.386 344.366 312.235 343.788 318.467 341.09C334.988 367.662 340.702 400.377 343.964 444.269Z" fill="#F2F2F2"/>
<g clip-path="url(#clip1)">
<path fill-rule="evenodd" clip-rule="evenodd" d="M314.765 321.622C318.935 316.727 321.758 310.728 321.286 304.005C319.927 284.636 292.965 288.897 287.72 298.673C282.475 308.449 283.098 333.246 289.877 334.993C292.58 335.69 298.339 333.983 304.2 330.451L300.521 356.477H322.243L314.765 321.622Z" fill="#F9C77B"/>
<path fill-rule="evenodd" clip-rule="evenodd" d="M307.247 320.26C309.94 325.431 313.666 329.324 317.387 329.324C324.457 329.324 329.483 319.873 329.483 309.711C329.483 309.354 329.476 308.999 329.462 308.647C336.94 313.779 342.703 323.894 352.598 323.894C366.06 323.894 371.406 296.742 352.598 296.742C339.807 296.742 333.516 298.607 328.093 301.364C327.024 298.349 325.393 295.815 323.399 294.044C322.92 293.504 322.184 292.988 321.235 292.509C320.655 292.191 320.055 291.933 319.438 291.738C316.168 290.537 311.431 289.689 306.141 289.504C305.153 289.47 304.182 289.46 303.236 289.472C303.221 284.487 299.174 280.45 294.185 280.45C289.187 280.45 285.134 284.502 285.134 289.501C285.134 294.335 288.924 298.284 293.695 298.539C296.424 299.381 299.93 299.999 303.819 300.26C303.441 301.679 303.236 303.292 303.236 305.115C303.236 306.724 303.414 308.431 303.741 310.164C304.584 309.162 305.712 308.508 306.856 308.508C310.058 308.508 312.287 311.141 312.287 313.938C312.287 317.487 310.238 320.055 307.247 320.26Z" fill="#191847"/>
</g>
<path fill-rule="evenodd" clip-rule="evenodd" d="M312.52 341.133C292.543 341.297 260.133 344.945 222.754 332.945L219.064 351.384C247.314 369.553 275.92 383.628 300.986 381.629C290.101 428.319 290.603 466.539 314.633 466.539C326.109 466.539 338.495 466.539 351.792 466.539C357.694 426.877 342.183 371.884 327.803 344.146C327.254 343.087 326.085 341.09 323.331 341.09C320.932 341.09 317.333 341.09 312.534 341.09C312.529 341.105 312.525 341.119 312.52 341.133Z" fill="#245637"/>
<path fill-rule="evenodd" clip-rule="evenodd" d="M1440.53 251.008C1436.36 246.113 1433.53 240.114 1434 233.391C1435.36 214.022 1462.33 218.283 1467.57 228.059C1472.82 237.835 1472.19 262.632 1465.41 264.379C1462.71 265.076 1456.95 263.369 1451.09 259.837L1454.77 285.863H1433.05L1440.53 251.008Z" fill="#B28B67"/>
<path fill-rule="evenodd" clip-rule="evenodd" d="M1452.18 235.53C1453.01 247.113 1455.21 252.904 1458.78 252.904C1464.13 252.904 1468.67 249.507 1471.02 249.507C1472.73 249.507 1472.34 251.649 1471.21 253.237C1470.27 254.547 1465.72 255.81 1465.72 257.842C1465.72 259.873 1469.32 258.301 1469.32 259.506C1469.32 261.499 1469.95 265.246 1466.49 265.246C1462.99 265.246 1452.95 263.97 1451.23 258.775C1450.12 255.422 1449.41 248.474 1449.08 237.932C1448.87 237.907 1448.65 237.894 1448.43 237.894C1445.43 237.894 1443 240.325 1443 243.324C1443 244.847 1443.63 246.223 1444.64 247.209C1443.38 248.982 1441.97 250.835 1440.36 252.747C1434.3 249.11 1429.8 238.463 1435.73 228.235C1437.37 223.224 1441.07 220.548 1445.45 219.305C1449 217.821 1452.69 217.654 1455.79 218.544C1461.89 219.066 1467.33 220.925 1468.87 222.029C1468.87 227.799 1467.76 229.511 1458.21 229.36C1455.86 230.599 1454.06 232.733 1452.18 235.53Z" fill="#D9D9D9"/>
<path fill-rule="evenodd" clip-rule="evenodd" d="M1425.81 360.984L1458.62 476.134L1482.56 561.006H1500.02L1474.58 360.984H1425.81Z" fill="#191847"/>
<path fill-rule="evenodd" clip-rule="evenodd" d="M1417.03 360.984C1416.27 420.334 1413.68 452.704 1412.89 458.097C1412.09 463.489 1400.04 497.792 1376.74 561.006H1394.83C1424.49 500.363 1441.05 466.06 1444.51 458.097C1447.96 450.133 1458.62 417.763 1474.68 360.984H1417.03Z" fill="#2F3676"/>
<path fill-rule="evenodd" clip-rule="evenodd" d="M1375.12 577.297L1376.03 558.29H1395.03C1404.05 564.626 1415.81 569.755 1430.33 573.677V577.297H1395.94L1384.17 575.487V577.297H1375.12Z" fill="#191847"/>
<path fill-rule="evenodd" clip-rule="evenodd" d="M1480.11 577.297L1481.02 558.29H1500.02C1509.04 564.626 1520.8 569.755 1535.32 573.677V577.297H1500.93L1489.16 575.487V577.297H1480.11Z" fill="#191847"/>
<path fill-rule="evenodd" clip-rule="evenodd" d="M1502.16 346.15L1529.48 369.312C1537.14 371.966 1543.49 375.045 1548.51 378.548C1549.67 379.763 1551 382.152 1545.9 381.398C1540.79 380.644 1535.38 380.081 1534.55 381.783C1533.72 383.484 1536.68 385.796 1535.09 388.058C1534.02 389.567 1529.79 385.302 1522.38 375.263L1494.69 361.442L1502.16 346.15ZM1378.44 336.127L1394.47 338.455C1377.27 375.789 1368.04 395.533 1366.8 397.688C1364 402.536 1367.29 410.981 1368.58 415.451C1362.08 417.327 1364.15 407.289 1355.94 409.793C1348.44 412.078 1342.25 417.258 1334.83 411.098C1333.91 410.341 1333.14 407.864 1336.05 406.421C1343.28 402.826 1353.89 396.248 1355.54 393.823C1357.79 390.517 1365.42 371.285 1378.44 336.127Z" fill="#B28B67"/>
<path fill-rule="evenodd" clip-rule="evenodd" d="M1445.44 270.777L1455.38 267.492C1468.85 301.152 1488.95 333.72 1522.52 361.228L1514.22 375.553C1484.71 358.171 1456.78 344.668 1445.44 318.585C1441.64 309.831 1445.13 281.244 1445.44 270.777Z" fill="#C5CFD6"/>
<path fill-rule="evenodd" clip-rule="evenodd" d="M1411.33 365.509C1439.78 368.526 1462.18 368.526 1478.52 365.509C1480.54 365.136 1480.86 361.746 1479.92 359.446C1465.3 323.626 1455.28 292.372 1455.28 267.492C1452.59 268.844 1447.9 269.047 1441.19 268.1C1423.17 293.739 1414.89 323.157 1411.33 365.509Z" fill="#323337"/>
<path fill-rule="evenodd" clip-rule="evenodd" d="M1436.71 265.951H1444.22C1445.97 276.237 1451.49 415.526 1468.52 461.091H1376.38C1378.37 419.35 1394.13 369.209 1410.09 327.25C1395.98 340.167 1383.68 362.053 1373.19 392.908L1355.93 388.478C1368.76 333.181 1395.15 292.537 1435.08 266.547C1435.17 266.348 1435.25 266.149 1435.34 265.951H1436C1436.25 265.794 1436.49 265.637 1436.74 265.482L1436.71 265.951V265.951Z" fill="#DDE3E9"/>
<path fill-rule="evenodd" clip-rule="evenodd" d="M465.775 265.735C468.188 259.954 469.014 253.563 466.557 247.502C459.475 230.041 435.652 242.141 433.705 252.751C431.757 263.361 439.784 286.055 446.619 285.613C449.345 285.437 454.194 282.117 458.59 277.082L462.98 302.213L483.204 295.632L465.775 265.735Z" fill="#F9C77B"/>
<path fill-rule="evenodd" clip-rule="evenodd" d="M438.496 240.327C440.987 238.592 444.907 237.004 446.657 236.646C444.955 234.679 443.747 232.263 443.253 229.689C442.773 227.188 443.191 224.79 443.495 222.32C443.635 221.181 443.839 220.028 444.373 219.018C444.917 217.99 445.758 217.154 446.734 216.568C447.733 215.969 448.869 215.622 450.023 215.495C450.534 215.439 451.034 215.516 451.542 215.484C452.063 215.451 452.199 215.077 452.45 214.664C453.056 213.669 454.172 212.912 455.194 212.438C456.34 211.907 457.636 211.683 458.9 211.701C460.13 211.719 461.394 211.988 462.486 212.622C462.972 212.905 463.443 213.253 463.817 213.685C463.97 213.862 464.024 213.98 464.255 213.987C464.469 213.995 464.693 213.924 464.912 213.926C467.03 213.946 469.138 214.877 470.638 216.465C471.513 217.391 472.386 219.24 473.022 221.423C473.658 223.606 473.525 229.887 472.352 232.543C471.306 234.914 469.284 236.912 467.125 238.201C469.243 239.451 470.987 241.307 472.474 243.287C474.089 245.439 475.42 247.787 476.443 250.288C477.415 252.665 478.269 255.234 478.469 257.805C478.655 260.208 478.098 262.411 476.552 264.197C475.844 265.015 475.026 265.723 474.191 266.398C473.368 267.063 472.54 267.719 471.621 268.241C469.882 269.229 467.715 269.862 465.802 268.859C465.112 268.498 464.327 268.017 463.739 267.493C463.527 267.304 463.396 267.178 463.487 266.897C463.596 266.56 463.847 266.248 464.031 265.952C465.082 264.266 465.45 262.352 465.048 260.351C464.64 258.32 463.289 255.968 461.092 255.738C458.38 255.455 456.165 257.514 454.427 259.327C452.513 256.488 449.759 254.267 446.411 253.769C442.708 253.217 438.99 254.221 435.272 253.924C434.303 253.847 433.303 253.727 432.439 253.207C432.078 252.99 431.642 252.698 431.407 252.332C431.099 251.852 431.297 251.3 431.428 250.805C432.122 248.177 436.004 242.061 438.496 240.327Z" fill="#191847"/>
<path fill-rule="evenodd" clip-rule="evenodd" d="M471.767 374.844L439.64 487.149L416.2 569.924H399.104L424.012 374.844H471.767Z" fill="#191847"/>
<path fill-rule="evenodd" clip-rule="evenodd" d="M480.359 374.844C481.102 432.728 483.636 464.299 484.416 469.557C485.196 474.816 496.993 508.272 519.807 569.924H502.097C473.053 510.779 456.839 477.324 453.457 469.557C450.075 461.791 439.637 430.22 423.916 374.844H480.359Z" fill="#2F3676"/>
<path fill-rule="evenodd" clip-rule="evenodd" d="M521.39 585.949L520.504 567.34H501.896C493.072 573.543 481.552 578.565 467.336 582.405V585.949H501.009L512.529 584.177V585.949H521.39Z" fill="#191847"/>
<path fill-rule="evenodd" clip-rule="evenodd" d="M418.599 585.949L417.713 567.34H399.104C390.28 573.543 378.761 578.565 364.545 582.405V585.949H398.218L409.738 584.177V585.949H418.599Z" fill="#191847"/>
<path fill-rule="evenodd" clip-rule="evenodd" d="M399.537 351.45L369.275 369.028C361.437 370.271 354.801 372.147 349.366 374.654C348.043 375.623 346.351 377.688 351.402 377.833C356.453 377.978 361.76 378.356 362.273 380.13C362.786 381.904 359.541 383.618 360.698 386.061C361.47 387.689 366.274 384.317 375.11 375.944L404.149 367.392L399.537 351.45ZM520.519 362.867L504.669 362.375C514.944 401.12 520.499 421.632 521.332 423.911C523.208 429.038 518.609 436.581 516.613 440.651C522.56 443.556 522.258 433.572 529.755 437.371C536.598 440.838 541.688 446.861 549.891 442.213C550.899 441.642 552.06 439.396 549.506 437.518C543.143 432.84 534.02 424.724 532.839 422.117C531.229 418.562 527.122 398.812 520.519 362.867Z" fill="#F9B752"/>
<path fill-rule="evenodd" clip-rule="evenodd" d="M466.973 288.776L457.952 283.935C439.265 313.94 414.38 341.77 377.353 362.455L382.935 377.61C414.327 365.95 443.544 357.743 458.885 334.646C464.034 326.893 465.502 298.871 466.973 288.776Z" fill="#C5CFD6"/>
<path fill-rule="evenodd" clip-rule="evenodd" d="M483.842 385.467C455.896 383.524 434.302 379.716 419.058 374.044C417.17 373.341 417.435 370.035 418.729 367.988C438.885 336.106 453.838 307.823 458.047 283.952C460.405 285.706 464.897 286.698 471.523 286.93C484.564 314.594 487.575 344.227 483.842 385.467Z" fill="#323337"/>
<path fill-rule="evenodd" clip-rule="evenodd" d="M476.207 285.63L468.965 284.353C465.538 293.925 436.655 426.627 412.527 467.449L501.37 483.114C506.505 442.726 499.794 391.939 491.502 348.969C502.926 363.761 511.085 386.851 515.979 418.239L533.37 416.922C530.352 361.686 511.788 318.205 477.68 286.48C477.63 286.273 477.581 286.068 477.532 285.863L476.891 285.75C476.681 285.558 476.471 285.366 476.261 285.175L476.207 285.63V285.63Z" fill="#DDE3E9"/>
<path fill-rule="evenodd" clip-rule="evenodd" d="M1678.04 300.473C1682.27 295.512 1685.13 289.431 1684.65 282.618C1683.28 262.987 1655.95 267.305 1650.63 277.213C1645.32 287.122 1645.95 312.254 1652.82 314.025C1655.56 314.732 1661.4 313.002 1667.34 309.421L1663.61 335.8H1685.62L1678.04 300.473Z" fill="#B28B67"/>
<path fill-rule="evenodd" clip-rule="evenodd" d="M1671.19 289.811C1671.91 289.316 1672.77 289.016 1673.7 289.016C1676.23 289.016 1678.28 291.275 1678.28 293.603C1678.28 296.024 1677.14 297.897 1675.51 298.691C1676.38 300.396 1677.26 301.634 1678.28 301.858C1682.25 301.457 1687.46 291.603 1687.46 283.512C1687.46 274.656 1680.41 267 1667.28 267C1655.47 267 1651 271.868 1650.76 276.173C1655.82 277.564 1664.66 278.099 1677.37 278.008V278.925L1666.36 279.843L1664.52 285.347C1667.44 285.129 1669.53 287.131 1671.19 289.811Z" fill="#191847"/>
<path d="M1694.8 571.553C1655.79 571.553 1624.16 541.366 1624.16 504.129C1624.16 466.892 1655.79 436.706 1694.8 436.706C1733.81 436.706 1765.43 466.892 1765.43 504.129C1765.43 541.366 1733.81 571.553 1694.8 571.553Z" fill="#B3DCF7"/>
<path fill-rule="evenodd" clip-rule="evenodd" d="M1561.32 561.15C1573.07 535.136 1581.57 512.485 1584.98 500.533C1590.82 480.07 1595.27 462.064 1596.39 455.339C1599.07 439.304 1575.79 438.37 1572.71 446.339C1568.05 458.401 1559.92 498.031 1550.15 557.891L1561.32 561.15ZM1697.65 479.511C1686.87 475.249 1649.1 461.909 1630.89 458.136C1625.65 457.051 1620.58 456.044 1615.81 455.133C1601.64 452.427 1594.29 478.001 1607.94 479.966C1641.95 484.86 1690.15 489.914 1694.28 490.481C1700.06 491.276 1704.43 482.19 1697.65 479.511Z" fill="#B28B67"/>
<path fill-rule="evenodd" clip-rule="evenodd" d="M1607.11 448.095L1665.44 418.402V411.938H1658.5C1602.07 426.318 1573.24 435.533 1571.99 439.584C1571.98 439.628 1571.97 439.671 1571.96 439.715C1571.93 439.752 1571.9 439.79 1571.87 439.828C1560.69 455.208 1553.99 530.298 1551.79 535.92L1573.22 539.117C1581.42 508.719 1607.65 487.542 1606.95 451.134C1607.14 450.066 1607.19 449.054 1607.11 448.095Z" fill="#308683"/>
<path fill-rule="evenodd" clip-rule="evenodd" d="M1660.6 465.73C1665.93 464.662 1670.85 463.708 1675.05 462.971C1702.22 458.206 1710.14 443.665 1705.46 411.938H1655.4C1647.23 414.286 1604.74 432.105 1582.69 441.582C1568.1 447.855 1572.7 470.467 1580.96 476.352C1581.01 476.713 1581.16 476.958 1581.42 477.068C1625.87 495.49 1661.03 485.824 1672.78 488.913L1678.21 471.774L1660.6 465.73Z" fill="#296867"/>
<path fill-rule="evenodd" clip-rule="evenodd" d="M1693.96 476.787C1696.88 477.066 1698.94 477.503 1700.17 478.099C1701.65 478.824 1703.7 480.13 1706.31 482.017C1705.47 483.742 1697.91 499.243 1683.63 528.52C1679.05 527.779 1677.23 526.03 1678.18 523.271C1679.13 520.512 1679.9 518.209 1680.48 516.362L1681.39 490.048C1681.41 489.542 1681.83 489.145 1682.34 489.163C1682.35 489.163 1682.36 489.163 1682.36 489.164L1686.41 489.418C1688.71 487.557 1690.23 485.872 1690.96 484.365C1691.56 483.141 1691.89 481.209 1691.95 478.57L1691.95 478.57C1691.98 477.557 1692.82 476.755 1693.83 476.779C1693.88 476.78 1693.92 476.783 1693.96 476.787Z" fill="#191847"/>
<path fill-rule="evenodd" clip-rule="evenodd" d="M1566.67 556.327C1567.69 559.067 1568.2 561.116 1568.2 562.477C1568.2 564.131 1567.93 566.545 1567.38 569.718C1565.46 569.718 1548.21 569.718 1515.64 569.718C1514.29 565.273 1515.07 562.874 1517.97 562.519C1520.86 562.165 1523.27 561.845 1525.19 561.559L1549.23 550.839C1549.7 550.632 1550.24 550.84 1550.45 551.303C1550.45 551.311 1550.45 551.319 1550.46 551.327L1552 555.076C1554.68 556.328 1556.86 556.953 1558.54 556.953C1559.9 556.953 1561.78 556.403 1564.18 555.303L1564.18 555.303C1565.1 554.881 1566.19 555.285 1566.62 556.206C1566.63 556.246 1566.65 556.286 1566.67 556.327Z" fill="#191847"/>
<path fill-rule="evenodd" clip-rule="evenodd" d="M1610.5 393.712L1581.24 415.199C1573.31 417.34 1566.68 420.005 1561.35 423.192C1560.09 424.338 1558.57 426.659 1563.79 426.258C1569.01 425.857 1574.51 425.67 1575.23 427.449C1575.95 429.228 1572.79 431.356 1574.25 433.756C1575.22 435.357 1579.8 431.344 1588 421.717L1616.97 409.702L1610.5 393.712ZM1742.92 384.762L1726.76 387.687C1745.52 424.895 1755.56 444.568 1756.89 446.707C1759.9 451.519 1756.86 460.188 1755.72 464.762C1762.37 466.432 1759.91 456.338 1768.32 458.584C1776 460.633 1782.45 465.662 1789.75 459.159C1790.65 458.36 1791.34 455.824 1788.35 454.465C1780.9 451.079 1769.91 444.791 1768.16 442.394C1765.76 439.125 1757.35 419.914 1742.92 384.762Z" fill="#B28B67"/>
<path fill-rule="evenodd" clip-rule="evenodd" d="M1603.69 396.048C1599.92 395.777 1595.83 396.401 1591.44 397.881C1589.28 398.608 1588.11 400.95 1588.84 403.11C1589.27 404.365 1590.23 405.283 1591.39 405.689C1590.55 406.302 1589.7 406.912 1588.85 407.518L1596.23 422.588C1627.29 407.099 1656.49 395.422 1669.8 369.852C1674.26 361.27 1672.75 332.119 1673.18 321.515L1663.36 317.491C1649.69 345.76 1631.18 372.881 1603.69 396.048Z" fill="#5F6D85"/>
<path fill-rule="evenodd" clip-rule="evenodd" d="M1707.64 420.111C1678.8 423.279 1656.1 423.279 1639.54 420.111C1637.49 419.718 1637.58 410.874 1638.53 408.459C1653.35 370.843 1663.09 343.307 1663.09 317.18C1665.81 318.6 1670.57 318.813 1677.37 317.819C1695.63 344.743 1704.03 375.636 1707.64 420.111Z" fill="#191847"/>
<path fill-rule="evenodd" clip-rule="evenodd" d="M1713 424.558C1713.98 423.637 1714.49 422.255 1714.24 420.832L1713.76 418.122C1713.43 416.285 1711.94 414.948 1710.18 414.739C1709.87 413.362 1709.61 411.995 1709.39 410.638C1707.54 399.175 1710.7 387.935 1710.55 376.898C1725.3 389.483 1738.54 411.214 1750.25 442.091L1767.58 436.993C1766.92 434.537 1766.23 432.112 1765.52 429.716C1767.52 428.58 1769.86 423.373 1768.18 422.502C1766.44 421.602 1764.6 420.969 1762.66 420.596C1746.78 372.749 1720.8 337.756 1684.73 315.618H1681.54L1674.3 315.618C1677.37 356.238 1634.94 444.92 1649.67 520.658C1676.9 526.738 1715.77 507.819 1753.61 522.934C1752.2 492.434 1724 456.603 1713 424.558V424.558Z" fill="#5F6D85"/>
<path fill-rule="evenodd" clip-rule="evenodd" d="M1680.94 316.536L1685.67 331.089L1676.14 342L1684.75 350.574L1663.92 386.253L1689.4 350.645L1680.94 342L1689.4 332.358L1680.94 316.536Z" fill="black" fill-opacity="0.1"/>
<path fill-rule="evenodd" clip-rule="evenodd" d="M1670.03 400.013C1672.05 400.013 1673.7 398.37 1673.7 396.343C1673.7 394.317 1672.05 392.674 1670.03 392.674C1668 392.674 1666.36 394.317 1666.36 396.343C1666.36 398.37 1668 400.013 1670.03 400.013ZM1665.44 421.111C1667.47 421.111 1669.11 419.468 1669.11 417.442C1669.11 415.415 1667.47 413.772 1665.44 413.772C1663.42 413.772 1661.77 415.415 1661.77 417.442C1661.77 419.468 1663.42 421.111 1665.44 421.111ZM1664.52 442.21C1666.55 442.21 1668.19 440.567 1668.19 438.54C1668.19 436.514 1666.55 434.871 1664.52 434.871C1662.5 434.871 1660.86 436.514 1660.86 438.54C1660.86 440.567 1662.5 442.21 1664.52 442.21Z" fill="black" fill-opacity="0.4"/>
</g>
<defs>
<clipPath id="clip0">
<rect width="1920" height="750" fill="white"/>
</clipPath>
<clipPath id="clip1">
<rect width="80.5517" height="76.0263" fill="white" transform="matrix(-1 0 0 1 364.781 280.45)"/>
</clipPath>
</defs>
</svg>
