<svg width="1920" height="750" viewBox="0 0 1920 750" fill="none" xmlns="http://www.w3.org/2000/svg">
<g clip-path="url(#clip0)">
<rect width="1920" height="750" fill="#C0CBD9"/>
<path d="M82.5967 520.771C83.676 529.197 83.7593 538.334 79.384 545.598C75.0759 552.751 66.5811 555.792 59.1809 559.649C52.3529 563.207 45.3342 565.714 37.7923 567.276C29.1253 569.07 20.1875 572.259 11.7781 569.463C3.00273 566.546 -4.04927 559.572 -8.97008 551.729C-13.8628 543.932 -15.7921 534.668 -15.8264 525.469C-15.8598 516.519 -13.2231 507.913 -9.16327 499.949C-5.09749 491.973 -0.189124 483.989 7.5797 479.554C15.2097 475.199 24.5051 474.558 33.2177 475.758C41.1601 476.851 47.5675 482.043 54.5388 486.019C61.2187 489.829 68.5374 492.671 73.3711 498.658C78.4752 504.98 81.5647 512.715 82.5967 520.771Z" fill="#4DC9B9"/>
<path opacity="0.7" d="M73.0419 446.921C60.5972 407.72 69.3321 363.609 92.3332 324.253C114.766 285.869 158.727 259.231 199.334 230.828C242.773 200.445 282.629 156.355 337.6 152.702C392.579 149.049 427.187 190.461 470.967 212.78C509.748 232.55 552.343 247.087 579.932 276.242C610.751 308.811 636.488 345.894 637.378 388.637C638.333 434.511 621.375 482.733 585.046 521.945C548.39 561.511 494.733 592.602 436.591 605.359C381.736 617.394 328.725 602.205 277.672 589.383C232.837 578.123 194.057 559.837 159.479 535.764C123.336 510.601 85.094 484.885 73.0419 446.921Z" fill="#39A59C"/>
<path d="M276.711 266.153C279.802 290.282 280.041 316.448 267.511 337.251C255.174 357.735 230.846 366.443 209.654 377.489C190.1 387.68 170.001 394.859 148.402 399.331C123.582 404.469 97.9863 413.601 73.9037 405.594C48.7733 397.24 28.578 377.268 14.486 354.809C0.474496 332.479 -5.05067 305.951 -5.14896 279.608C-5.24459 253.976 2.30623 229.331 13.9328 206.524C25.5762 183.683 39.6326 160.817 61.8806 148.117C83.731 135.645 110.351 133.81 135.302 137.245C158.047 140.376 176.396 155.245 196.36 166.631C215.49 177.541 236.449 185.682 250.291 202.827C264.908 220.931 273.756 243.082 276.711 266.153Z" fill="#4DC9B9"/>
<path d="M1746.71 265.201C1802.02 268.056 1851.53 290.947 1889.39 318.16C1926.12 344.568 1940.24 380.061 1954.84 414.832C1970.05 451.028 1992.96 488.598 1976.03 524.448C1958.95 560.63 1910.05 584.788 1864.14 606.95C1819.63 628.434 1770.97 647.937 1716.22 649.858C1662.43 651.745 1612.94 634.505 1565.48 617.429C1518.48 600.522 1466.9 583.691 1443.2 551.638C1419.88 520.112 1436.47 483.308 1440.31 448.206C1444.07 413.895 1435 376.185 1465.44 348.501C1495.8 320.889 1552.94 317.065 1599.72 303.211C1648.75 288.69 1693.27 262.444 1746.71 265.201Z" fill="#39A59C"/>
<path d="M1546.76 135.204C1569.65 145.182 1592.83 158.759 1604.59 180.808C1616.17 202.519 1611.07 228.636 1609.69 253.21C1608.41 275.883 1604.19 297.453 1596.8 318.922C1588.3 343.594 1582.92 371.056 1563.22 388.148C1542.67 405.985 1514.48 413.332 1487.29 413.969C1460.26 414.602 1433.98 405.513 1410.72 391.719C1388.08 378.298 1370.32 358.63 1356.32 336.323C1342.31 313.985 1329.53 289.497 1330.01 263.118C1330.49 237.209 1342.84 212.686 1358.96 192.416C1373.65 173.938 1396.38 165.535 1416.89 153.868C1436.55 142.689 1454.72 128.431 1477.09 125.215C1500.72 121.82 1524.88 125.662 1546.76 135.204Z" fill="#4DC9B9"/>
<path fill-rule="evenodd" clip-rule="evenodd" d="M410.775 265.735C413.188 259.954 414.014 253.563 411.557 247.502C404.475 230.041 380.652 242.141 378.705 252.751C376.757 263.361 384.784 286.055 391.619 285.613C394.345 285.437 399.194 282.117 403.59 277.082L407.98 302.213L428.204 295.632L410.775 265.735Z" fill="#F9C77B"/>
<path fill-rule="evenodd" clip-rule="evenodd" d="M383.496 240.327C385.987 238.592 389.907 237.004 391.657 236.646C389.955 234.679 388.747 232.263 388.253 229.689C387.773 227.188 388.191 224.79 388.495 222.32C388.635 221.181 388.839 220.028 389.373 219.018C389.917 217.99 390.758 217.154 391.734 216.568C392.733 215.969 393.869 215.622 395.023 215.495C395.534 215.439 396.034 215.516 396.542 215.484C397.063 215.451 397.199 215.077 397.45 214.664C398.056 213.669 399.172 212.912 400.194 212.438C401.34 211.907 402.636 211.683 403.9 211.701C405.13 211.719 406.394 211.988 407.486 212.622C407.972 212.905 408.443 213.253 408.817 213.685C408.97 213.862 409.024 213.98 409.255 213.987C409.469 213.995 409.693 213.924 409.912 213.926C412.03 213.946 414.138 214.877 415.638 216.465C416.513 217.391 417.386 219.24 418.022 221.423C418.658 223.606 418.525 229.887 417.352 232.543C416.306 234.914 414.284 236.912 412.125 238.201C414.243 239.451 415.987 241.307 417.474 243.287C419.089 245.439 420.42 247.787 421.443 250.288C422.415 252.665 423.269 255.234 423.469 257.805C423.655 260.208 423.098 262.411 421.552 264.197C420.844 265.015 420.026 265.723 419.191 266.398C418.368 267.063 417.54 267.719 416.621 268.241C414.882 269.229 412.715 269.862 410.802 268.859C410.112 268.498 409.327 268.017 408.739 267.493C408.527 267.304 408.396 267.178 408.487 266.897C408.596 266.56 408.847 266.248 409.031 265.952C410.082 264.266 410.45 262.352 410.048 260.351C409.64 258.32 408.289 255.968 406.092 255.738C403.38 255.455 401.165 257.514 399.427 259.327C397.513 256.488 394.759 254.267 391.411 253.769C387.708 253.217 383.99 254.221 380.272 253.924C379.303 253.847 378.303 253.727 377.439 253.207C377.078 252.99 376.642 252.698 376.407 252.332C376.099 251.852 376.297 251.3 376.428 250.805C377.122 248.177 381.004 242.061 383.496 240.327Z" fill="#191847"/>
<path fill-rule="evenodd" clip-rule="evenodd" d="M416.767 374.844L384.64 487.149L361.2 569.924H344.104L369.012 374.844H416.767Z" fill="#191847"/>
<path fill-rule="evenodd" clip-rule="evenodd" d="M425.359 374.844C426.102 432.728 428.636 464.299 429.416 469.557C430.196 474.816 441.993 508.272 464.807 569.924H447.097C418.053 510.779 401.839 477.324 398.457 469.557C395.075 461.791 384.637 430.22 368.916 374.844H425.359Z" fill="#2F3676"/>
<path fill-rule="evenodd" clip-rule="evenodd" d="M466.39 585.949L465.504 567.34H446.896C438.072 573.543 426.552 578.565 412.336 582.405V585.949H446.009L457.529 584.177V585.949H466.39Z" fill="#191847"/>
<path fill-rule="evenodd" clip-rule="evenodd" d="M363.599 585.949L362.713 567.34H344.104C335.28 573.543 323.761 578.565 309.545 582.405V585.949H343.218L354.738 584.177V585.949H363.599Z" fill="#191847"/>
<path fill-rule="evenodd" clip-rule="evenodd" d="M344.537 351.45L314.275 369.028C306.437 370.271 299.801 372.147 294.366 374.654C293.043 375.623 291.351 377.688 296.402 377.833C301.453 377.978 306.76 378.356 307.273 380.13C307.786 381.904 304.541 383.618 305.698 386.061C306.47 387.689 311.274 384.317 320.11 375.944L349.149 367.392L344.537 351.45ZM465.519 362.867L449.669 362.375C459.944 401.12 465.499 421.632 466.332 423.911C468.208 429.038 463.609 436.581 461.613 440.651C467.56 443.556 467.258 433.572 474.755 437.371C481.598 440.838 486.688 446.861 494.891 442.213C495.899 441.642 497.06 439.396 494.506 437.518C488.143 432.84 479.02 424.724 477.839 422.117C476.229 418.562 472.122 398.812 465.519 362.867Z" fill="#F9B752"/>
<path fill-rule="evenodd" clip-rule="evenodd" d="M411.973 288.776L402.952 283.935C384.265 313.94 359.38 341.77 322.353 362.455L327.935 377.61C359.327 365.95 388.544 357.743 403.885 334.646C409.034 326.893 410.502 298.871 411.973 288.776Z" fill="#C5CFD6"/>
<path fill-rule="evenodd" clip-rule="evenodd" d="M428.842 385.467C400.896 383.524 379.302 379.716 364.058 374.044C362.17 373.341 362.435 370.035 363.729 367.988C383.885 336.106 398.838 307.823 403.047 283.952C405.405 285.706 409.897 286.698 416.523 286.93C429.564 314.594 432.575 344.227 428.842 385.467Z" fill="#323337"/>
<path fill-rule="evenodd" clip-rule="evenodd" d="M421.207 285.63L413.965 284.353C410.538 293.925 381.655 426.627 357.527 467.449L446.37 483.114C451.505 442.726 444.794 391.939 436.502 348.969C447.926 363.761 456.085 386.851 460.979 418.239L478.37 416.922C475.352 361.686 456.788 318.205 422.68 286.48C422.63 286.273 422.581 286.068 422.532 285.863L421.891 285.75C421.681 285.558 421.471 285.366 421.261 285.175L421.207 285.63V285.63Z" fill="#DDE3E9"/>
<path fill-rule="evenodd" clip-rule="evenodd" d="M1716.04 300.473C1720.27 295.512 1723.13 289.431 1722.65 282.618C1721.28 262.987 1693.95 267.305 1688.63 277.213C1683.32 287.122 1683.95 312.254 1690.82 314.025C1693.56 314.732 1699.4 313.002 1705.34 309.421L1701.61 335.8H1723.62L1716.04 300.473Z" fill="#B28B67"/>
<path fill-rule="evenodd" clip-rule="evenodd" d="M1709.19 289.811C1709.91 289.316 1710.77 289.016 1711.7 289.016C1714.23 289.016 1716.28 291.275 1716.28 293.603C1716.28 296.024 1715.14 297.897 1713.51 298.691C1714.38 300.396 1715.26 301.634 1716.28 301.858C1720.25 301.457 1725.46 291.603 1725.46 283.512C1725.46 274.656 1718.41 267 1705.28 267C1693.47 267 1689 271.868 1688.76 276.173C1693.82 277.564 1702.66 278.099 1715.37 278.008V278.925L1704.36 279.843L1702.52 285.347C1705.44 285.129 1707.53 287.131 1709.19 289.811Z" fill="#191847"/>
<path d="M1732.8 571.553C1693.79 571.553 1662.16 541.366 1662.16 504.129C1662.16 466.892 1693.79 436.706 1732.8 436.706C1771.81 436.706 1803.43 466.892 1803.43 504.129C1803.43 541.366 1771.81 571.553 1732.8 571.553Z" fill="#B3DCF7"/>
<path fill-rule="evenodd" clip-rule="evenodd" d="M1599.32 561.15C1611.07 535.136 1619.57 512.485 1622.98 500.533C1628.82 480.07 1633.27 462.064 1634.39 455.339C1637.07 439.304 1613.79 438.37 1610.71 446.339C1606.05 458.401 1597.92 498.031 1588.15 557.891L1599.32 561.15ZM1735.65 479.511C1724.87 475.249 1687.1 461.909 1668.89 458.136C1663.65 457.051 1658.58 456.044 1653.81 455.133C1639.64 452.427 1632.29 478.001 1645.94 479.966C1679.95 484.86 1728.15 489.914 1732.28 490.481C1738.06 491.276 1742.43 482.19 1735.65 479.511Z" fill="#B28B67"/>
<path fill-rule="evenodd" clip-rule="evenodd" d="M1645.11 448.095L1703.44 418.402V411.938H1696.5C1640.07 426.318 1611.24 435.533 1609.99 439.584C1609.98 439.628 1609.97 439.671 1609.96 439.715C1609.93 439.752 1609.9 439.79 1609.87 439.828C1598.69 455.208 1591.99 530.298 1589.79 535.92L1611.22 539.117C1619.42 508.719 1645.65 487.542 1644.95 451.134C1645.14 450.066 1645.19 449.054 1645.11 448.095Z" fill="#A31C6F"/>
<path fill-rule="evenodd" clip-rule="evenodd" d="M1698.6 465.73C1703.93 464.662 1708.85 463.708 1713.05 462.971C1740.22 458.206 1748.14 443.665 1743.46 411.938H1693.4C1685.23 414.286 1642.74 432.105 1620.69 441.582C1606.1 447.855 1610.7 470.467 1618.96 476.352C1619.01 476.713 1619.16 476.958 1619.42 477.068C1663.87 495.49 1699.03 485.824 1710.78 488.913L1716.21 471.774L1698.6 465.73Z" fill="#80155B"/>
<path fill-rule="evenodd" clip-rule="evenodd" d="M1731.96 476.787C1734.88 477.066 1736.94 477.503 1738.17 478.099C1739.65 478.824 1741.7 480.13 1744.31 482.017C1743.47 483.742 1735.91 499.243 1721.63 528.52C1717.05 527.779 1715.23 526.03 1716.18 523.271C1717.13 520.512 1717.9 518.209 1718.48 516.362L1719.39 490.048C1719.41 489.542 1719.83 489.145 1720.34 489.163C1720.35 489.163 1720.36 489.163 1720.36 489.164L1724.41 489.418C1726.71 487.557 1728.23 485.872 1728.96 484.365C1729.56 483.141 1729.89 481.209 1729.95 478.57L1729.95 478.57C1729.98 477.557 1730.82 476.755 1731.83 476.779C1731.88 476.78 1731.92 476.783 1731.96 476.787Z" fill="#191847"/>
<path fill-rule="evenodd" clip-rule="evenodd" d="M1604.67 556.327C1605.69 559.067 1606.2 561.116 1606.2 562.477C1606.2 564.131 1605.93 566.545 1605.38 569.718C1603.46 569.718 1586.21 569.718 1553.64 569.718C1552.29 565.273 1553.07 562.874 1555.97 562.519C1558.86 562.165 1561.27 561.845 1563.19 561.559L1587.23 550.839C1587.7 550.632 1588.24 550.84 1588.45 551.303C1588.45 551.311 1588.45 551.319 1588.46 551.327L1590 555.076C1592.68 556.328 1594.86 556.953 1596.54 556.953C1597.9 556.953 1599.78 556.403 1602.18 555.303L1602.18 555.303C1603.1 554.881 1604.19 555.285 1604.62 556.206C1604.63 556.246 1604.65 556.286 1604.67 556.327Z" fill="#191847"/>
<path fill-rule="evenodd" clip-rule="evenodd" d="M1648.5 393.712L1619.24 415.199C1611.31 417.34 1604.68 420.005 1599.35 423.192C1598.09 424.338 1596.57 426.659 1601.79 426.258C1607.01 425.857 1612.51 425.67 1613.23 427.449C1613.95 429.228 1610.79 431.356 1612.25 433.756C1613.22 435.357 1617.8 431.344 1626 421.717L1654.97 409.702L1648.5 393.712ZM1780.92 384.762L1764.76 387.687C1783.52 424.895 1793.56 444.568 1794.89 446.707C1797.9 451.519 1794.86 460.188 1793.72 464.762C1800.37 466.432 1797.91 456.338 1806.32 458.584C1814 460.633 1820.45 465.662 1827.75 459.159C1828.65 458.36 1829.34 455.824 1826.35 454.465C1818.9 451.079 1807.91 444.791 1806.16 442.394C1803.76 439.125 1795.35 419.914 1780.92 384.762Z" fill="#B28B67"/>
<path fill-rule="evenodd" clip-rule="evenodd" d="M1641.69 396.048C1637.92 395.777 1633.83 396.401 1629.44 397.881C1627.28 398.608 1626.11 400.95 1626.84 403.11C1627.27 404.365 1628.23 405.283 1629.39 405.689C1628.55 406.302 1627.7 406.912 1626.85 407.518L1634.23 422.588C1665.29 407.099 1694.49 395.422 1707.8 369.852C1712.26 361.27 1710.75 332.119 1711.18 321.515L1701.36 317.491C1687.69 345.76 1669.18 372.881 1641.69 396.048Z" fill="#5F6D85"/>
<path fill-rule="evenodd" clip-rule="evenodd" d="M1745.64 420.111C1716.8 423.279 1694.1 423.279 1677.54 420.111C1675.49 419.718 1675.58 410.874 1676.53 408.459C1691.35 370.843 1701.09 343.307 1701.09 317.18C1703.81 318.6 1708.57 318.813 1715.37 317.819C1733.63 344.743 1742.03 375.636 1745.64 420.111Z" fill="#191847"/>
<path fill-rule="evenodd" clip-rule="evenodd" d="M1751 424.558C1751.98 423.637 1752.49 422.255 1752.24 420.832L1751.76 418.122C1751.43 416.285 1749.94 414.948 1748.18 414.739C1747.87 413.362 1747.61 411.995 1747.39 410.638C1745.54 399.175 1748.7 387.935 1748.55 376.898C1763.3 389.483 1776.54 411.214 1788.25 442.091L1805.58 436.993C1804.92 434.537 1804.23 432.112 1803.52 429.716C1805.52 428.58 1807.86 423.373 1806.18 422.502C1804.44 421.602 1802.6 420.969 1800.66 420.596C1784.78 372.749 1758.8 337.756 1722.73 315.618H1719.54L1712.3 315.618C1715.37 356.238 1672.94 444.92 1687.67 520.658C1714.9 526.738 1753.77 507.819 1791.61 522.934C1790.2 492.434 1762 456.603 1751 424.558V424.558Z" fill="#5F6D85"/>
<path fill-rule="evenodd" clip-rule="evenodd" d="M1718.94 316.536L1723.67 331.089L1714.14 342L1722.75 350.574L1701.92 386.253L1727.4 350.645L1718.94 342L1727.4 332.358L1718.94 316.536Z" fill="black" fill-opacity="0.1"/>
<path fill-rule="evenodd" clip-rule="evenodd" d="M1708.03 400.013C1710.05 400.013 1711.7 398.37 1711.7 396.343C1711.7 394.317 1710.05 392.674 1708.03 392.674C1706 392.674 1704.36 394.317 1704.36 396.343C1704.36 398.37 1706 400.013 1708.03 400.013ZM1703.44 421.111C1705.47 421.111 1707.11 419.468 1707.11 417.442C1707.11 415.415 1705.47 413.772 1703.44 413.772C1701.42 413.772 1699.77 415.415 1699.77 417.442C1699.77 419.468 1701.42 421.111 1703.44 421.111ZM1702.52 442.21C1704.55 442.21 1706.19 440.567 1706.19 438.54C1706.19 436.514 1704.55 434.871 1702.52 434.871C1700.5 434.871 1698.86 436.514 1698.86 438.54C1698.86 440.567 1700.5 442.21 1702.52 442.21Z" fill="black" fill-opacity="0.4"/>
<path fill-rule="evenodd" clip-rule="evenodd" d="M1478.53 251.008C1474.36 246.113 1471.53 240.114 1472 233.391C1473.36 214.022 1500.33 218.283 1505.57 228.059C1510.82 237.835 1510.19 262.632 1503.41 264.379C1500.71 265.076 1494.95 263.369 1489.09 259.837L1492.77 285.863H1471.05L1478.53 251.008Z" fill="#B28B67"/>
<path fill-rule="evenodd" clip-rule="evenodd" d="M1490.18 235.53C1491.01 247.113 1493.21 252.904 1496.78 252.904C1502.13 252.904 1506.67 249.507 1509.02 249.507C1510.73 249.507 1510.34 251.649 1509.21 253.237C1508.27 254.547 1503.72 255.81 1503.72 257.842C1503.72 259.873 1507.32 258.301 1507.32 259.506C1507.32 261.499 1507.95 265.246 1504.49 265.246C1500.99 265.246 1490.95 263.97 1489.23 258.775C1488.12 255.422 1487.41 248.474 1487.08 237.932C1486.87 237.907 1486.65 237.894 1486.43 237.894C1483.43 237.894 1481 240.325 1481 243.324C1481 244.847 1481.63 246.223 1482.64 247.209C1481.38 248.982 1479.97 250.835 1478.36 252.747C1472.3 249.11 1467.8 238.463 1473.73 228.235C1475.37 223.224 1479.07 220.548 1483.45 219.305C1487 217.821 1490.69 217.654 1493.79 218.544C1499.89 219.066 1505.33 220.925 1506.87 222.029C1506.87 227.799 1505.76 229.511 1496.21 229.36C1493.86 230.599 1492.06 232.733 1490.18 235.53Z" fill="#D9D9D9"/>
<path fill-rule="evenodd" clip-rule="evenodd" d="M1463.81 360.984L1496.62 476.134L1520.56 561.006H1538.02L1512.58 360.984H1463.81Z" fill="#191847"/>
<path fill-rule="evenodd" clip-rule="evenodd" d="M1455.03 360.984C1454.27 420.334 1451.68 452.704 1450.89 458.097C1450.09 463.489 1438.04 497.792 1414.74 561.006H1432.83C1462.49 500.363 1479.05 466.06 1482.51 458.097C1485.96 450.133 1496.62 417.763 1512.68 360.984H1455.03Z" fill="#2F3676"/>
<path fill-rule="evenodd" clip-rule="evenodd" d="M1413.12 577.297L1414.03 558.29H1433.03C1442.05 564.626 1453.81 569.755 1468.33 573.677V577.297H1433.94L1422.17 575.487V577.297H1413.12Z" fill="#191847"/>
<path fill-rule="evenodd" clip-rule="evenodd" d="M1518.11 577.297L1519.02 558.29H1538.02C1547.04 564.626 1558.8 569.755 1573.32 573.677V577.297H1538.93L1527.16 575.487V577.297H1518.11Z" fill="#191847"/>
<path fill-rule="evenodd" clip-rule="evenodd" d="M1540.16 346.15L1567.48 369.312C1575.14 371.966 1581.49 375.045 1586.51 378.548C1587.67 379.763 1589 382.152 1583.9 381.398C1578.79 380.644 1573.38 380.081 1572.55 381.783C1571.72 383.484 1574.68 385.796 1573.09 388.058C1572.02 389.567 1567.79 385.302 1560.38 375.263L1532.69 361.442L1540.16 346.15ZM1416.44 336.127L1432.47 338.455C1415.27 375.789 1406.04 395.533 1404.8 397.688C1402 402.536 1405.29 410.981 1406.58 415.451C1400.08 417.327 1402.15 407.289 1393.94 409.793C1386.44 412.078 1380.25 417.258 1372.83 411.098C1371.91 410.341 1371.14 407.864 1374.05 406.421C1381.28 402.826 1391.89 396.248 1393.54 393.823C1395.79 390.517 1403.42 371.285 1416.44 336.127Z" fill="#B28B67"/>
<path fill-rule="evenodd" clip-rule="evenodd" d="M1483.44 270.777L1493.38 267.492C1506.85 301.152 1526.95 333.72 1560.52 361.228L1552.22 375.553C1522.71 358.171 1494.78 344.668 1483.44 318.585C1479.64 309.831 1483.13 281.244 1483.44 270.777Z" fill="#C5CFD6"/>
<path fill-rule="evenodd" clip-rule="evenodd" d="M1449.33 365.509C1477.78 368.526 1500.18 368.526 1516.52 365.509C1518.54 365.136 1518.86 361.746 1517.92 359.446C1503.3 323.626 1493.28 292.372 1493.28 267.492C1490.59 268.844 1485.9 269.047 1479.19 268.1C1461.17 293.739 1452.89 323.157 1449.33 365.509Z" fill="#323337"/>
<path fill-rule="evenodd" clip-rule="evenodd" d="M1474.71 265.951H1482.22C1483.97 276.237 1489.49 415.526 1506.52 461.091H1414.38C1416.37 419.35 1432.13 369.209 1448.09 327.25C1433.98 340.167 1421.68 362.053 1411.19 392.908L1393.93 388.478C1406.76 333.181 1433.15 292.537 1473.08 266.547C1473.17 266.348 1473.25 266.149 1473.34 265.951H1474C1474.25 265.794 1474.49 265.637 1474.74 265.482L1474.71 265.951V265.951Z" fill="#DDE3E9"/>
<path fill-rule="evenodd" clip-rule="evenodd" d="M159.644 452.501C153.145 443.688 136.902 449.522 136.912 456.818C136.937 475.975 154.419 566.917 155.332 572.659C156.244 578.401 166.022 580.279 166.591 573.105C167.497 561.69 169.181 522.117 167.496 503.707C167.004 498.329 166.486 493.131 165.963 488.262C175.151 504.767 189.122 528.096 207.876 558.248L218.299 553.486C210.114 526.519 203.402 507.48 198.164 496.371C189.195 477.349 180.785 461.06 177.245 455.322C172.57 447.742 164.987 448.749 159.644 452.501Z" fill="#B28B67"/>
<path fill-rule="evenodd" clip-rule="evenodd" d="M217.554 538.51L181.779 453.761C173.208 439.974 149.179 456.566 152.102 464.562C158.737 482.716 192.484 541.487 194.46 546.895L217.554 538.51Z" fill="#3A4355"/>
<path fill-rule="evenodd" clip-rule="evenodd" d="M136.007 463.435C136.007 487.457 146.536 543.923 146.543 549.213L172.05 548.353C167.592 499.259 165.711 474.545 166.409 474.213C167.98 473.464 230.802 482.908 249.644 483.621C276.813 484.649 288.052 467.981 288.964 436.35H236.336C191.335 441.722 161.758 445.458 147.606 447.558C138.517 448.907 136.007 456.818 136.007 463.435Z" fill="#222A38"/>
<path fill-rule="evenodd" clip-rule="evenodd" d="M219.71 550.829C221.346 553.207 222.327 555.047 222.651 556.349C223.046 557.932 223.359 560.309 223.588 563.479C221.751 563.937 205.241 568.053 174.057 575.828C171.709 571.894 171.879 569.412 174.568 568.381C177.256 567.35 179.484 566.469 181.25 565.739L201.713 549.735C202.106 549.427 202.675 549.497 202.983 549.891C202.988 549.898 202.993 549.904 202.999 549.911L205.373 553.132C208.239 553.69 210.475 553.768 212.08 553.368C213.384 553.043 215.054 552.067 217.089 550.441L217.089 550.441C217.87 549.817 219.009 549.944 219.633 550.725C219.66 550.759 219.685 550.794 219.71 550.829Z" fill="#E4E4E4"/>
<path fill-rule="evenodd" clip-rule="evenodd" d="M167.976 559.577C168.988 562.28 169.494 564.303 169.494 565.645C169.494 567.277 169.222 569.658 168.679 572.79C166.785 572.79 149.769 572.79 117.631 572.79C116.304 568.404 117.07 566.036 119.928 565.687C122.786 565.337 125.16 565.021 127.051 564.74L150.777 554.162C151.234 553.959 151.769 554.164 151.973 554.62C151.976 554.628 151.979 554.636 151.983 554.644L153.508 558.343C156.154 559.578 158.304 560.195 159.958 560.195C161.302 560.195 163.158 559.652 165.526 558.567L165.526 558.567C166.435 558.15 167.509 558.549 167.926 559.458C167.944 559.497 167.96 559.537 167.976 559.577Z" fill="#E4E4E4"/>
<path d="M123.788 572.79H165.422C167.171 572.79 168.589 574.208 168.589 575.957C168.589 577.707 167.171 579.125 165.422 579.125H123.788C122.039 579.125 120.62 577.707 120.62 575.957C120.62 574.208 122.039 572.79 123.788 572.79Z" fill="#666666"/>
<path fill-rule="evenodd" clip-rule="evenodd" d="M291.68 441.554H194.837C189.838 441.554 185.786 445.606 185.786 450.604V494.953H297.11C299.109 494.953 300.73 493.332 300.73 491.333V450.604C300.73 445.606 296.678 441.554 291.68 441.554Z" fill="#B1B1B1"/>
<path fill-rule="evenodd" clip-rule="evenodd" d="M194.837 441.554H192.851C188.418 441.554 184.638 444.764 183.92 449.138L164.064 570.074H173.735" fill="#666666"/>
<path d="M168.589 588.176C159.592 588.176 152.298 580.882 152.298 571.885C152.298 562.887 159.592 555.593 168.589 555.593C177.587 555.593 184.881 562.887 184.881 571.885C184.881 580.882 177.587 588.176 168.589 588.176Z" fill="#E4E4E4"/>
<path fill-rule="evenodd" clip-rule="evenodd" d="M288.964 586.366C326.954 586.366 357.75 555.569 357.75 517.58C357.75 479.591 326.954 448.794 288.964 448.794C250.975 448.794 220.179 479.591 220.179 517.58C220.179 555.569 250.975 586.366 288.964 586.366ZM288.964 573.695C257.973 573.695 232.85 548.571 232.85 517.58C232.85 486.589 257.973 461.465 288.964 461.465C319.956 461.465 345.079 486.589 345.079 517.58C345.079 548.571 319.956 573.695 288.964 573.695Z" fill="#E4E4E4"/>
<path d="M285.344 457.845H292.585V577.315H285.344V457.845Z" fill="#E4E4E4"/>
<path d="M245.445 476.621L248.005 474.061C248.712 473.354 249.858 473.354 250.565 474.061L332.483 555.979C333.19 556.686 333.19 557.832 332.483 558.539L329.923 561.099C329.216 561.806 328.07 561.806 327.363 561.099L245.445 479.181C244.738 478.474 244.738 477.328 245.445 476.621Z" fill="#E4E4E4"/>
<path d="M229.229 519.39V515.77C229.229 514.77 230.04 513.96 231.04 513.96H346.889C347.889 513.96 348.699 514.77 348.699 515.77V519.39C348.699 520.39 347.889 521.2 346.889 521.2H231.04C230.04 521.2 229.229 520.39 229.229 519.39Z" fill="#E4E4E4"/>
<path d="M248.005 561.099L245.445 558.539C244.738 557.832 244.738 556.686 245.445 555.979L327.363 474.061C328.07 473.354 329.216 473.354 329.923 474.061L332.483 476.621C333.19 477.328 333.19 478.474 332.483 479.181L250.565 561.099C249.858 561.806 248.712 561.806 248.005 561.099Z" fill="#E4E4E4"/>
<path fill-rule="evenodd" clip-rule="evenodd" d="M197.139 343.209L162.833 332.911C156.433 327.929 150.397 324.286 144.724 321.983C143.074 321.672 140.342 321.853 143.756 325.725C147.169 329.597 150.585 333.823 149.611 335.447C148.636 337.071 145.085 335.847 144.057 338.419C143.372 340.133 149.255 341.361 161.707 342.103L188.38 357.8L197.139 343.209ZM200.17 403.693L171.3 424.893C163.47 427.006 156.928 429.634 151.674 432.779C150.433 433.91 148.933 436.2 154.08 435.804C159.227 435.408 164.658 435.224 165.368 436.979C166.078 438.735 162.964 440.834 164.399 443.202C165.356 444.781 169.878 440.822 177.963 431.324L206.552 419.469L200.17 403.693Z" fill="#F9C77B"/>
<path fill-rule="evenodd" clip-rule="evenodd" d="M245.013 346.599C229.291 375.914 206.557 398.386 173.598 421.747L186.078 435.818C222.878 422.142 242.3 413.891 251.837 386.195C254.231 379.243 255.904 357.084 257.339 345.425L245.013 346.599Z" fill="#234D4E"/>
<path fill-rule="evenodd" clip-rule="evenodd" d="M288.964 444.269H219.274C235.06 396.124 243.124 363.08 243.466 345.137C243.483 344.223 245.173 342.611 245.92 342.822C251.386 344.366 257.235 343.788 263.467 341.09C279.988 367.662 285.702 400.377 288.964 444.269Z" fill="#F2F2F2"/>
<g clip-path="url(#clip1)">
<path fill-rule="evenodd" clip-rule="evenodd" d="M259.765 321.622C263.935 316.727 266.758 310.728 266.286 304.005C264.927 284.636 237.965 288.897 232.72 298.673C227.475 308.449 228.098 333.246 234.877 334.993C237.58 335.69 243.339 333.983 249.2 330.451L245.521 356.477H267.243L259.765 321.622Z" fill="#F9C77B"/>
<path fill-rule="evenodd" clip-rule="evenodd" d="M252.247 320.26C254.94 325.431 258.666 329.324 262.387 329.324C269.457 329.324 274.483 319.873 274.483 309.711C274.483 309.354 274.476 308.999 274.462 308.647C281.94 313.779 287.703 323.894 297.598 323.894C311.06 323.894 316.406 296.742 297.598 296.742C284.807 296.742 278.516 298.607 273.093 301.364C272.024 298.349 270.393 295.815 268.399 294.044C267.92 293.504 267.184 292.988 266.235 292.509C265.655 292.191 265.055 291.933 264.438 291.738C261.168 290.537 256.431 289.689 251.141 289.504C250.153 289.47 249.182 289.46 248.236 289.472C248.221 284.487 244.174 280.45 239.185 280.45C234.187 280.45 230.134 284.502 230.134 289.501C230.134 294.335 233.924 298.284 238.695 298.539C241.424 299.381 244.93 299.999 248.819 300.26C248.441 301.679 248.236 303.292 248.236 305.115C248.236 306.724 248.414 308.431 248.741 310.164C249.584 309.162 250.712 308.508 251.856 308.508C255.058 308.508 257.287 311.141 257.287 313.938C257.287 317.487 255.238 320.055 252.247 320.26Z" fill="#191847"/>
</g>
<path fill-rule="evenodd" clip-rule="evenodd" d="M257.52 341.133C237.543 341.297 205.133 344.945 167.754 332.945L164.064 351.384C192.314 369.553 220.92 383.628 245.986 381.629C235.101 428.319 235.603 466.539 259.633 466.539C271.109 466.539 283.495 466.539 296.792 466.539C302.694 426.877 287.183 371.884 272.803 344.146C272.254 343.087 271.085 341.09 268.331 341.09C265.932 341.09 262.333 341.09 257.534 341.09C257.529 341.105 257.524 341.119 257.52 341.133Z" fill="#1E3E41"/>
</g>
<defs>
<clipPath id="clip0">
<rect width="1920" height="750" fill="white"/>
</clipPath>
<clipPath id="clip1">
<rect width="80.5517" height="76.0263" fill="white" transform="matrix(-1 0 0 1 309.781 280.45)"/>
</clipPath>
</defs>
</svg>
